<svg width="20" height="20" viewBox="0 0 20 20" fill="none" xmlns="http://www.w3.org/2000/svg">
<g clip-path="url(#clip0_6829_243)">
<path d="M19.3792 9.63045C19.2095 9.39826 15.1652 3.94506 9.99991 3.94506C4.83461 3.94506 0.790122 9.39826 0.620569 9.63023C0.45981 9.85051 0.45981 10.1493 0.620569 10.3696C0.790122 10.6018 4.83461 16.055 9.99991 16.055C15.1652 16.055 19.2095 10.6017 19.3792 10.3697C19.5402 10.1495 19.5402 9.85051 19.3792 9.63045ZM9.99991 14.8022C6.19511 14.8022 2.89976 11.1828 1.92426 9.99958C2.89849 8.81531 6.18695 5.1978 9.99991 5.1978C13.8045 5.1978 17.0996 8.81657 18.0756 10.0004C17.1013 11.1847 13.8129 14.8022 9.99991 14.8022Z" fill="#ABABAB"/>
<path d="M9.99996 6.24175C7.92769 6.24175 6.2417 7.92775 6.2417 10C6.2417 12.0723 7.92769 13.7583 9.99996 13.7583C12.0722 13.7583 13.7582 12.0723 13.7582 10C13.7582 7.92775 12.0722 6.24175 9.99996 6.24175ZM9.99996 12.5055C8.61837 12.5055 7.49448 11.3816 7.49448 10C7.49448 8.61846 8.61841 7.49453 9.99996 7.49453C11.3815 7.49453 12.5054 8.61846 12.5054 10C12.5054 11.3816 11.3815 12.5055 9.99996 12.5055Z" fill="#ABABAB"/>
</g>
<defs>
<clipPath id="clip0_6829_243">
<rect width="19" height="19" fill="white" transform="translate(0.5 0.5)"/>
</clipPath>
</defs>
</svg>
